<?xml version="1.0" encoding="UTF-8"?>
<svg width="200px" height="200px" viewBox="0 0 100 100" xmlns="http://www.w3.org/2000/svg">
  <g id="plant">
    <g id="leaves">
      <!-- Stem -->
      <path d="M50,90 C50,60 50,40 50,30" stroke="#5a8c48" stroke-width="4" fill="none"/>
      
      <!-- Leaves -->
      <path d="M50,30 C40,40 30,45 20,42 C30,35 40,25 50,30 Z" fill="#78b45c"/>
      <path d="M50,30 C60,40 70,45 80,42 C70,35 60,25 50,30 Z" fill="#78b45c"/>
      
      <path d="M50,40 C40,50 30,55 20,52 C30,45 40,40 50,40 Z" fill="#78b45c"/>
      <path d="M50,40 C60,50 70,55 80,52 C70,45 60,40 50,40 Z" fill="#78b45c"/>
      
      <path d="M50,50 C40,60 35,70 40,80 C45,70 45,60 50,50 Z" fill="#78b45c"/>
      <path d="M50,50 C60,60 65,70 60,80 C55,70 55,60 50,50 Z" fill="#78b45c"/>
      
      <!-- Soil (brown arc) -->
      <path d="M30,90 C40,85 60,85 70,90" stroke="#8B4513" stroke-width="4" fill="none"/>
    </g>
    <!-- Flower/Fruit at top -->
    <circle cx="50" cy="22" r="10" fill="#ffa000"/>
    <circle cx="50" cy="22" r="6" fill="#ffc900"/>
  </g>
</svg>