<?xml version="1.0" encoding="UTF-8"?>
<svg width="200px" height="200px" viewBox="0 0 100 100" xmlns="http://www.w3.org/2000/svg">
  <g id="farmer">
    <!-- Hat -->
    <path d="M65,30 C65,20 55,14 50,14 C45,14 35,20 35,30 L65,30 Z" fill="#8B4513"/>
    <!-- Face -->
    <circle cx="50" cy="40" r="15" fill="#F5DEB3"/>
    <!-- Eyes -->
    <circle cx="45" cy="38" r="2" fill="#000"/>
    <circle cx="55" cy="38" r="2" fill="#000"/>
    <!-- Smile -->
    <path d="M45,45 Q50,50 55,45" fill="none" stroke="#000" stroke-width="1"/>
    <!-- Neck -->
    <rect x="45" y="55" width="10" height="5" fill="#F5DEB3"/>
    <!-- Body/Shirt -->
    <path d="M35,60 C35,60 30,80 35,85 C40,90 60,90 65,85 C70,80 65,60 65,60 L35,60 Z" fill="#4CAF50"/>
    <!-- Overall straps -->
    <rect x="42" y="60" width="5" height="25" fill="#3E8E41"/>
    <rect x="53" y="60" width="5" height="25" fill="#3E8E41"/>
    <!-- Buttons -->
    <circle cx="50" cy="65" r="2" fill="#FFD700"/>
    <circle cx="50" cy="75" r="2" fill="#FFD700"/>
    <!-- Arms -->
    <rect x="32" y="65" width="5" height="15" rx="2" fill="#F5DEB3"/>
    <rect x="63" y="65" width="5" height="15" rx="2" fill="#F5DEB3"/>
  </g>
</svg>