<svg xmlns="http://www.w3.org/2000/svg" width="1440" height="500" viewBox="0 0 1440 500">
  <defs>
    <linearGradient id="a" x1="0%" y1="0%" x2="100%" y2="100%">
      <stop offset="0%" stop-color="#E8F5E9"/>
      <stop offset="100%" stop-color="#C8E6C9"/>
    </linearGradient>
    <linearGradient id="b" x1="50%" y1="0%" x2="50%" y2="100%">
      <stop offset="0%" stop-color="#4CAF50" stop-opacity=".1"/>
      <stop offset="100%" stop-color="#4CAF50" stop-opacity="0"/>
    </linearGradient>
  </defs>
  <g fill="none" fill-rule="evenodd">
    <rect width="1440" height="500" fill="url(#a)"/>
    <circle cx="1200" cy="150" r="120" fill="#4CAF50" opacity=".15"/>
    <circle cx="200" cy="350" r="80" fill="#8BC34A" opacity=".15"/>
    <path fill="url(#b)" d="M0,350 C240,430 480,470 720,470 C960,470 1200,430 1440,350 L1440,500 L0,500 L0,350 Z"/>
    <path fill="#2E7D32" fill-opacity=".05" d="M1320,80 C1176.4,80 1060,196.4 1060,340 C1060,483.6 1176.4,600 1320,600 C1463.6,600 1580,483.6 1580,340 C1580,196.4 1463.6,80 1320,80 Z M1320,150 C1424.6,150 1510,235.4 1510,340 C1510,444.6 1424.6,530 1320,530 C1215.4,530 1130,444.6 1130,340 C1130,235.4 1215.4,150 1320,150 Z"/>
    <g transform="translate(850 50)" stroke="#4CAF50" stroke-dasharray="3,6" stroke-linecap="round" stroke-width="2">
      <path d="M0,0 L200,0"/>
      <path d="M0,40 L200,40"/>
      <path d="M0,80 L200,80"/>
      <path d="M0,120 L200,120"/>
    </g>
    <g transform="translate(100 150)" fill="#2E7D32" fill-opacity=".1">
      <rect width="15" height="15" x="0" y="0"/>
      <rect width="15" height="15" x="30" y="0"/>
      <rect width="15" height="15" x="60" y="0"/>
      <rect width="15" height="15" x="0" y="30"/>
      <rect width="15" height="15" x="30" y="30"/>
      <rect width="15" height="15" x="60" y="30"/>
      <rect width="15" height="15" x="0" y="60"/>
      <rect width="15" height="15" x="30" y="60"/>
      <rect width="15" height="15" x="60" y="60"/>
    </g>
    <path fill="#4CAF50" fill-opacity=".1" d="M850,200 L950,250 L850,300 z"/>
    <path fill="#8BC34A" fill-opacity=".1" d="M400,100 L450,150 L400,200 L350,150 z"/>
  </g>
</svg>