<svg xmlns="http://www.w3.org/2000/svg" width="120" height="40" viewBox="0 0 120 40">
  <g fill="none" fill-rule="evenodd">
    <path fill="#2E7D32" d="M24.5,5 C23.6715729,5 23,5.67157288 23,6.5 L23,10.5 C23,13.3456979 21.6299871,15.9501783 19.4355958,17.3616019 L15.4380472,19.8097148 C14.0069606,20.7191939 13,22.2437305 13,24.0016889 L13,33.5 C13,34.3284271 13.6715729,35 14.5,35 C15.3284271,35 16,34.3284271 16,33.5 L16,24.0016889 C16,23.4062695 16.3310132,22.8598061 16.846649,22.5342852 L20.8441976,20.0861723 C23.9505424,18.0748217 26,14.4663021 26,10.5 L26,6.5 C26,5.67157288 25.3284271,5 24.5,5 Z" transform="rotate(45 19.5 20)"/>
    <path fill="#4CAF50" d="M34.5,5 C33.6715729,5 33,5.67157288 33,6.5 L33,10.5 C33,13.3456979 31.6299871,15.9501783 29.4355958,17.3616019 L25.4380472,19.8097148 C24.0069606,20.7191939 23,22.2437305 23,24.0016889 L23,33.5 C23,34.3284271 23.6715729,35 24.5,35 C25.3284271,35 26,34.3284271 26,33.5 L26,24.0016889 C26,23.4062695 26.3310132,22.8598061 26.846649,22.5342852 L30.8441976,20.0861723 C33.9505424,18.0748217 36,14.4663021 36,10.5 L36,6.5 C36,5.67157288 35.3284271,5 34.5,5 Z" transform="scale(-1 1) rotate(45 0 -63.284)"/>
    <text fill="#2E7D32" font-family="Arial-BoldMT, Arial" font-size="16" font-weight="bold">
      <tspan x="45" y="25">FarmBuddy</tspan>
    </text>
  </g>
</svg>